<?xml version="1.0" standalone="no"?>
<!DOCTYPE svg PUBLIC "-//W3C//DTD SVG 20010904//EN"
 "http://www.w3.org/TR/2001/REC-SVG-20010904/DTD/svg10.dtd">
<svg version="1.0" xmlns="http://www.w3.org/2000/svg"
 width="1012.000000pt" height="664.000000pt" viewBox="0 0 1012.000000 664.000000"
 preserveAspectRatio="xMidYMid meet">

<g transform="translate(0.000000,664.000000) scale(0.100000,-0.100000)"
fill="#000000" stroke="none">
<path d="M0 3320 l0 -3320 5060 0 5060 0 0 3320 0 3320 -5060 0 -5060 0 0
-3320z m4945 759 c66 -23 70 -26 73 -57 6 -62 -34 -78 -119 -45 -65 24 -237
24 -309 -1 -90 -31 -132 -57 -196 -121 -192 -191 -191 -523 1 -716 102 -103
222 -146 380 -136 50 3 110 13 134 21 77 28 111 17 111 -35 0 -40 -20 -54
-108 -78 -176 -47 -378 -16 -520 82 -249 170 -326 552 -168 829 81 143 186
222 356 270 94 26 269 20 365 -13z m2888 12 c131 -17 230 -89 290 -210 30 -61
32 -72 32 -171 0 -93 -3 -111 -27 -163 -24 -52 -26 -61 -14 -80 58 -92 61
-252 8 -360 -38 -78 -111 -148 -190 -185 -53 -24 -69 -27 -215 -30 -140 -4
-160 -2 -178 13 -23 22 -25 62 -2 87 14 16 33 18 158 18 159 0 190 7 254 58
116 94 129 281 28 390 l-22 23 24 42 c61 106 66 121 65 187 0 78 -26 139 -83
195 -67 67 -98 74 -333 74 l-208 1 0 -27 c2 -216 -4 -986 -7 -1009 -8 -53 -88
-67 -107 -19 -9 24 -7 1128 2 1142 4 7 19 16 32 22 31 12 401 13 493 2z
m-5751 -18 c17 -15 18 -46 18 -575 0 -366 -4 -566 -10 -579 -7 -13 -21 -19
-45 -19 -24 0 -38 6 -45 19 -6 13 -10 212 -10 577 0 505 2 559 17 576 20 22
51 23 75 1z m218 -3 c20 -20 20 -33 20 -573 0 -615 1 -601 -63 -595 -58 6 -57
-1 -54 606 2 535 3 554 21 568 27 19 52 18 76 -6z m364 4 c14 -13 16 -64 16
-402 0 -411 4 -453 50 -527 56 -91 166 -147 290 -148 142 -2 252 60 312 176
l33 62 5 418 c4 357 7 419 20 427 23 15 57 12 75 -6 14 -15 16 -60 13 -438 -3
-414 -4 -422 -26 -477 -50 -120 -153 -215 -277 -254 -76 -24 -218 -25 -293 -2
-151 46 -253 147 -298 296 -11 36 -14 133 -14 458 0 382 1 413 18 422 25 15
58 13 76 -5z m220 0 c14 -13 16 -62 16 -386 0 -322 2 -374 16 -404 38 -80 164
-86 215 -10 11 17 15 97 19 409 5 417 4 406 57 407 53 0 53 -1 53 -412 0 -256
-4 -393 -11 -419 -28 -93 -113 -149 -225 -149 -108 0 -168 36 -210 125 -24 50
-24 51 -24 437 0 420 0 418 55 418 13 0 31 -7 39 -16z m2416 -4 c19 -19 20
-33 20 -540 l0 -520 300 0 300 0 16 -25 c22 -34 11 -73 -24 -82 -47 -14 -670
-7 -687 7 -13 11 -15 92 -15 586 0 535 1 574 18 583 26 16 50 13 72 -9z m220
0 c19 -19 20 -33 20 -430 l0 -410 113 -2 c61 -1 144 -2 183 -3 80 0 114 -19
114 -61 0 -49 -26 -54 -267 -54 -210 0 -224 1 -243 20 -19 19 -20 33 -20 470
0 437 1 451 20 470 11 11 29 20 40 20 11 0 29 -9 40 -20z m713 2 c14 -15 16
-68 19 -427 l3 -410 28 -57 c54 -111 170 -180 302 -181 150 -1 262 63 319 182
l31 66 5 413 c4 352 7 414 20 422 24 15 56 12 74 -9 16 -17 17 -54 14 -437 -3
-410 -4 -420 -26 -476 -47 -117 -160 -219 -282 -255 -73 -22 -216 -22 -295 1
-118 35 -233 136 -277 244 -23 56 -23 64 -26 487 -3 398 -2 431 14 442 25 18
58 16 77 -5z m221 2 c14 -13 16 -62 16 -386 0 -322 2 -374 16 -404 20 -42 59
-64 114 -64 32 0 48 7 78 34 l37 34 3 389 c3 422 2 413 58 413 54 0 54 1 54
-418 0 -368 -1 -389 -21 -432 -37 -82 -82 -115 -177 -131 -75 -12 -148 9 -202
57 -68 62 -70 77 -70 510 0 415 0 414 55 414 13 0 31 -7 39 -16z m-1545 -216
c75 -27 100 -56 83 -93 -16 -35 -49 -40 -107 -13 -67 30 -181 31 -245 2 -200
-91 -212 -390 -20 -498 49 -28 64 -31 135 -30 61 0 93 6 132 23 62 27 84 25
101 -11 17 -37 4 -61 -50 -87 -111 -53 -257 -54 -362 -2 -110 54 -175 146
-198 281 -35 206 86 401 279 450 60 15 180 4 252 -22z m2935 -1 c51 -29 76
-64 83 -115 15 -115 -41 -182 -167 -196 -68 -8 -104 7 -108 48 -5 44 22 66 84
66 76 0 107 38 67 82 -14 15 -32 18 -127 18 -125 0 -156 11 -156 57 0 55 21
63 159 63 112 0 130 -3 165 -23z m12 -443 c54 -40 69 -70 69 -139 0 -68 -15
-99 -67 -138 -38 -28 -167 -37 -191 -12 -20 20 -22 68 -4 83 7 6 39 14 71 18
83 10 108 42 66 84 -18 18 -33 20 -134 20 -124 0 -146 8 -146 55 0 50 21 57
171 53 120 -3 141 -6 165 -24z m-5160 -710 c18 -15 17 -15 -13 -10 -21 3 -35
0 -44 -10 -14 -17 -11 -20 33 -42 60 -30 45 -82 -23 -82 -28 0 -39 4 -39 15 0
18 12 19 27 4 8 -8 17 -8 32 0 30 17 26 28 -16 48 -43 20 -54 51 -28 77 21 20
46 20 71 0z m264 -25 c0 -27 2 -29 40 -29 38 0 40 2 40 30 0 17 5 30 10 30 6
0 10 -32 10 -75 0 -43 -4 -75 -10 -75 -5 0 -10 16 -10 35 0 34 -1 35 -40 35
-39 0 -40 -1 -40 -35 0 -19 -4 -35 -10 -35 -6 0 -10 34 -10 81 0 51 4 78 10
74 6 -3 10 -19 10 -36z m352 -43 c-2 -42 -8 -76 -13 -76 -10 0 -13 143 -3 153
15 15 19 -5 16 -77z m305 17 l38 -56 3 57 c4 83 22 68 22 -19 0 -94 -15 -98
-68 -17 l-37 57 -3 -57 c-5 -87 -22 -70 -22 22 0 95 9 97 67 13z m396 58 c5
-1 5 -5 2 -11 -3 -5 -22 -10 -41 -10 -27 0 -34 -4 -34 -20 0 -16 7 -20 35 -20
19 0 35 -4 35 -10 0 -5 -16 -10 -35 -10 -31 0 -35 -3 -35 -25 0 -22 4 -25 40
-25 22 0 40 -4 40 -10 0 -5 -22 -10 -50 -10 l-50 0 0 74 c0 86 1 86 93 77z
m913 -59 l39 -56 3 62 c4 90 22 76 22 -18 0 -99 -12 -103 -69 -23 l-41 56 0
-56 c0 -44 -3 -57 -15 -57 -12 0 -15 15 -15 73 0 41 3 76 6 80 12 12 32 -6 70
-61z m385 54 c26 -6 49 -41 49 -75 0 -10 -9 -30 -21 -45 -17 -22 -28 -26 -70
-26 l-49 0 0 74 c0 88 3 90 91 72z m639 -3 c0 -7 -11 -13 -25 -13 -24 0 -25
-2 -25 -65 0 -37 -4 -65 -10 -65 -6 0 -10 28 -10 65 0 62 -1 65 -24 65 -23 0
-41 12 -31 21 2 3 31 5 64 5 44 0 61 -3 61 -13z m240 -24 c0 -27 2 -29 40 -29
39 0 40 1 40 36 0 21 4 33 10 29 6 -3 10 -40 10 -81 0 -43 -4 -74 -10 -74 -5
0 -10 16 -10 35 0 34 -1 35 -40 35 -39 0 -40 -1 -40 -35 0 -19 -4 -35 -10 -35
-5 0 -11 3 -11 8 -4 22 -5 138 -2 145 9 16 23 -5 23 -34z m403 32 c9 0 23 -12
29 -26 9 -20 8 -28 -6 -44 -16 -18 -16 -21 -1 -50 13 -27 13 -31 1 -31 -8 0
-23 14 -33 30 -9 17 -20 30 -24 30 -4 0 -9 -13 -12 -30 -12 -56 -27 -32 -27
43 0 41 2 76 5 79 3 3 16 4 28 3 12 -1 30 -3 40 -4z m287 -77 c0 -59 -3 -74
-15 -74 -12 0 -15 15 -15 73 0 41 3 77 6 80 16 16 24 -10 24 -79z m256 20 c21
-56 23 -58 32 -34 30 78 43 101 51 95 7 -3 2 -26 -10 -58 -12 -29 -25 -62 -30
-74 -15 -40 -34 -25 -62 50 -30 80 -32 90 -15 85 6 -2 22 -31 34 -64z m404 51
c0 -11 -11 -15 -40 -15 -33 0 -40 -3 -40 -20 0 -17 7 -20 40 -20 22 0 40 -4
40 -10 0 -5 -18 -10 -40 -10 -36 0 -40 -2 -40 -25 0 -22 4 -25 39 -25 22 0 43
-4 46 -10 4 -6 -15 -10 -49 -10 l-56 0 0 73 c0 41 2 76 5 78 2 3 25 6 50 8 35
1 45 -2 45 -14z m-2932 -67 c28 -68 27 -103 -3 -62 -19 26 -66 27 -87 1 -27
-34 -30 -14 -7 39 11 27 25 59 30 72 15 39 35 24 67 -50z"/>
<path d="M5240 2635 l0 -55 33 0 c41 0 57 15 57 55 0 40 -16 55 -57 55 l-33 0
0 -55z"/>
<path d="M6544 2673 c2 -11 13 -19 29 -21 22 -3 27 1 27 17 0 16 -6 21 -29 21
-22 0 -29 -4 -27 -17z"/>
<path d="M4551 2657 c-12 -31 -7 -47 14 -47 21 0 23 12 9 45 l-12 30 -11 -28z"/>
</g>
</svg>
